<?xml version="1.0" encoding="UTF-8" ?>
<!DOCTYPE svg PUBLIC "-//W3C//DTD SVG 1.1//EN" "http://www.w3.org/Graphics/SVG/1.1/DTD/svg11.dtd">
<svg width="1124pt" height="434pt" viewBox="0 0 1124 434" version="1.1" xmlns="http://www.w3.org/2000/svg">
<g id="#3eb7e5ff">
<path fill="#3eb7e5" opacity="1.00" d=" M 176.51 1.80 C 187.86 -0.05 199.45 -0.51 210.89 0.79 C 232.08 3.20 252.89 8.57 272.81 16.14 C 289.16 22.36 305.16 30.05 319.00 40.88 C 325.92 46.58 332.89 53.27 335.47 62.14 C 337.97 71.53 331.65 80.09 325.41 86.37 C 310.41 100.34 291.53 109.16 272.59 116.42 C 251.16 124.38 228.84 130.05 206.09 132.46 C 192.65 133.78 179.09 132.63 165.79 130.57 C 149.08 127.91 132.58 123.95 116.57 118.47 C 101.99 113.53 87.64 107.58 74.58 99.36 C 67.22 94.62 60.07 89.20 54.99 81.97 C 52.84 78.70 50.98 74.98 51.05 70.97 C 51.02 65.93 53.45 61.28 56.29 57.26 C 63.79 47.32 74.20 40.18 84.71 33.78 C 101.75 23.90 120.12 16.47 138.90 10.64 C 151.20 6.80 163.77 3.77 176.51 1.80 Z" />
<path fill="#3eb7e5" opacity="1.00" d=" M 356.36 81.04 C 372.77 105.86 382.87 134.59 387.09 163.96 C 392.42 201.41 386.67 240.14 371.66 274.79 C 366.00 287.78 359.00 300.22 350.35 311.46 C 345.13 318.11 339.39 324.53 332.37 329.33 C 328.89 331.53 324.64 334.23 320.42 332.41 C 313.04 329.53 306.93 324.18 301.45 318.59 C 281.60 297.61 268.92 270.70 261.76 242.93 C 253.46 210.69 254.48 176.41 263.23 144.38 C 282.57 138.18 301.65 130.72 319.03 120.10 C 334.47 110.68 349.66 98.39 356.36 81.04 Z" />
<path fill="#3eb7e5" opacity="1.00" d=" M 10.45 134.60 C 15.63 118.24 23.14 102.66 32.16 88.09 C 36.93 97.45 44.14 105.35 52.45 111.70 C 71.79 126.63 94.87 135.68 117.96 143.03 C 125.21 177.61 124.62 213.76 116.56 248.16 C 111.63 269.03 104.21 289.49 92.98 307.84 C 87.74 316.07 82.01 324.32 74.06 330.17 C 71.59 331.87 68.50 333.97 65.41 332.55 C 56.62 329.15 49.75 322.29 43.45 315.51 C 23.58 293.04 10.86 264.87 4.24 235.78 C -3.14 202.33 -0.61 166.95 10.45 134.60 Z" />
<path fill="#3eb7e5" opacity="1.00" d=" M 559.31 106.49 C 562.27 105.64 565.55 105.65 568.47 106.73 C 571.66 108.09 573.26 111.69 573.18 115.02 C 573.34 135.35 572.49 155.67 572.30 176.00 C 572.36 191.33 571.56 206.64 571.17 221.97 C 570.73 233.25 570.74 244.55 570.12 255.83 C 569.94 258.60 569.47 261.48 567.91 263.85 C 563.34 269.97 550.92 267.50 551.01 259.09 C 550.65 233.39 553.30 207.73 553.04 182.02 C 553.09 160.01 553.99 138.02 554.02 116.01 C 553.80 112.23 555.33 107.70 559.31 106.49 Z" />
<path fill="#3eb7e5" opacity="1.00" d=" M 820.47 106.61 C 823.59 105.60 827.14 105.59 830.20 106.86 C 833.30 108.20 834.63 111.76 834.63 114.94 C 834.83 138.64 833.65 162.32 833.72 186.02 C 833.15 206.70 832.40 227.37 831.92 248.05 C 831.49 253.00 832.19 258.29 829.93 262.89 C 826.07 270.19 812.21 267.94 812.45 259.00 C 812.13 235.65 814.34 212.34 814.49 188.99 C 814.37 164.64 815.44 140.30 815.48 115.95 C 815.33 112.31 816.64 107.85 820.47 106.61 Z" />
<path fill="#3eb7e5" opacity="1.00" d=" M 491.15 110.13 C 498.04 107.39 505.59 106.57 512.96 106.99 C 516.16 107.21 519.57 107.98 521.99 110.24 C 525.29 114.04 524.95 120.83 520.52 123.64 C 516.45 126.16 511.46 125.36 506.94 126.06 C 499.77 126.98 493.40 131.86 490.25 138.30 C 486.10 146.38 484.93 155.57 484.83 164.54 C 492.88 164.07 500.93 163.20 509.01 163.50 C 513.20 163.77 517.99 164.75 520.52 168.46 C 522.73 172.13 522.08 177.89 518.14 180.14 C 514.49 182.30 510.08 181.98 506.00 182.09 C 498.65 182.12 491.33 182.81 484.02 183.48 C 483.68 189.65 483.40 195.84 483.18 202.02 C 482.64 225.18 486.03 248.66 481.47 271.59 C 480.44 278.61 470.71 280.77 465.97 276.11 C 463.18 273.95 462.59 270.15 463.24 266.87 C 465.86 251.06 465.12 234.98 465.02 219.02 C 464.90 207.68 465.00 196.34 464.96 184.99 C 458.68 185.27 452.36 186.46 446.10 185.55 C 438.70 184.37 437.32 172.95 443.57 169.37 C 450.35 165.45 458.54 166.57 466.04 165.96 C 467.36 152.77 468.16 139.10 473.80 126.88 C 477.15 119.35 483.46 113.14 491.15 110.13 Z" />
<path fill="#3eb7e5" opacity="1.00" d=" M 737.23 123.17 C 742.62 113.70 753.25 108.44 763.81 107.32 C 769.60 106.83 775.86 106.13 781.28 108.70 C 787.14 111.48 787.12 121.41 781.20 124.08 C 775.85 126.60 769.63 124.96 764.16 127.09 C 757.35 129.39 752.42 135.34 750.06 141.97 C 747.16 149.12 746.47 156.91 746.24 164.55 C 752.82 164.10 759.41 163.59 766.02 163.42 C 770.69 163.40 775.78 163.47 779.81 166.18 C 783.76 168.80 784.23 174.89 781.50 178.55 C 778.66 181.78 774.01 181.98 770.02 182.06 C 761.79 182.02 753.58 182.70 745.40 183.50 C 745.03 190.00 744.94 196.52 744.60 203.03 C 744.26 225.71 747.31 248.66 743.06 271.13 C 742.30 277.74 734.05 280.54 728.80 277.17 C 725.27 275.26 723.80 270.91 724.66 267.10 C 726.38 256.51 726.76 245.75 726.64 235.03 C 726.48 218.36 726.30 201.68 726.33 185.00 C 719.93 185.24 713.44 186.57 707.07 185.44 C 699.89 183.90 698.96 172.45 705.27 169.20 C 712.08 165.49 720.13 166.56 727.57 165.95 C 728.89 151.43 729.78 136.10 737.23 123.17 Z" />
<path fill="#3eb7e5" opacity="1.00" d=" M 879.20 117.12 C 886.06 114.91 893.86 120.82 893.65 127.99 C 893.91 134.47 887.46 140.17 881.06 139.27 C 875.47 138.80 870.55 133.71 870.77 128.01 C 870.65 123.02 874.41 118.36 879.20 117.12 Z" />
<path fill="#3eb7e5" opacity="1.00" d=" M 142.86 150.05 C 161.27 154.07 180.07 157.00 198.96 156.48 C 212.23 155.99 225.41 153.89 238.36 151.03 C 231.26 183.55 231.67 217.75 240.09 249.98 C 248.09 280.00 261.92 308.92 282.92 332.04 C 290.39 340.21 299.02 347.46 308.96 352.44 C 289.85 366.13 268.33 376.50 245.58 382.47 C 212.88 391.29 177.87 391.15 145.16 382.43 C 122.51 376.40 101.05 366.06 82.04 352.37 C 91.48 347.48 98.87 339.54 105.24 331.20 C 122.59 308.01 132.98 280.37 139.61 252.38 C 147.30 218.91 148.52 183.94 142.86 150.05 Z" />
<path fill="#3eb7e5" opacity="1.00" d=" M 965.45 156.54 C 971.88 154.67 978.01 150.68 984.97 151.65 C 989.44 152.22 992.58 156.51 992.55 160.88 C 992.66 167.63 995.96 174.16 994.71 180.93 C 993.20 187.52 984.20 189.98 979.22 185.70 C 976.25 182.49 976.31 177.79 975.35 173.78 C 969.41 175.00 963.74 177.18 957.93 178.87 C 951.08 180.87 943.97 183.72 939.40 189.47 C 937.85 191.24 937.36 193.59 936.98 195.84 C 943.19 198.00 949.79 198.55 956.09 200.37 C 965.62 202.93 975.38 206.42 982.49 213.55 C 990.52 221.30 993.51 233.28 991.57 244.09 C 990.41 250.55 986.66 256.47 981.30 260.26 C 973.95 265.44 964.98 267.87 956.11 268.56 C 944.00 269.52 931.52 267.83 920.49 262.61 C 915.80 260.35 910.94 256.64 910.19 251.14 C 908.86 245.33 914.29 239.56 920.01 239.59 C 924.86 239.96 927.28 245.12 931.81 246.32 C 942.91 249.70 955.16 250.28 966.20 246.33 C 969.34 245.11 972.60 242.66 972.94 239.04 C 973.24 234.29 971.32 229.42 967.56 226.44 C 960.70 220.60 951.35 219.77 942.94 217.65 C 935.72 215.81 927.83 214.00 922.53 208.36 C 917.47 202.45 917.31 194.02 918.83 186.77 C 920.58 178.02 927.05 170.79 934.92 166.88 C 944.57 162.04 955.28 160.01 965.45 156.54 Z" />
<path fill="#3eb7e5" opacity="1.00" d=" M 639.15 162.21 C 648.12 160.95 657.85 162.13 665.24 167.74 C 675.08 175.10 679.95 187.24 682.10 198.98 C 684.49 214.65 683.23 231.47 675.50 245.57 C 670.58 254.58 663.04 262.57 653.26 266.20 C 642.09 270.23 629.02 269.53 618.78 263.30 C 608.18 256.75 600.86 245.55 598.29 233.45 C 595.14 218.95 596.45 203.33 602.93 189.90 C 607.32 180.90 613.80 172.61 622.60 167.60 C 627.64 164.62 633.35 162.92 639.15 162.21 M 637.30 182.56 C 631.65 184.08 627.03 188.13 623.77 192.87 C 617.34 202.59 615.06 214.66 616.31 226.15 C 617.41 236.11 623.94 246.23 634.18 248.52 C 643.58 250.55 653.79 246.08 659.07 238.13 C 665.07 230.11 665.43 219.57 664.96 209.97 C 664.40 202.02 663.19 193.43 657.91 187.11 C 652.82 181.41 644.31 180.48 637.30 182.56 Z" />
<path fill="#3eb7e5" opacity="1.00" d=" M 875.53 163.62 C 880.92 161.45 887.91 164.97 888.42 171.00 C 888.93 183.35 887.33 195.67 886.92 208.00 C 886.10 223.33 887.43 238.67 887.30 254.00 C 887.39 257.97 884.76 261.91 880.90 263.03 C 875.40 264.90 868.52 261.22 868.29 255.12 C 868.05 244.09 867.71 233.06 867.52 222.02 C 867.25 205.61 869.51 189.28 869.45 172.88 C 869.29 168.94 871.69 164.86 875.53 163.62 Z" />
</g>
</svg>
