<?xml version="1.0" encoding="UTF-8" ?>
<!DOCTYPE svg PUBLIC "-//W3C//DTD SVG 1.1//EN" "http://www.w3.org/Graphics/SVG/1.1/DTD/svg11.dtd">
<svg width="1333px" height="471px" viewBox="0 0 1333 471" version="1.1" xmlns="http://www.w3.org/2000/svg">
<g id="#3eb7e5ff">
<path fill="#3eb7e5" opacity="1.00" d=" M 780.43 43.93 C 782.94 43.76 785.47 43.74 788.00 43.74 C 787.96 145.72 788.08 247.71 787.94 349.69 C 785.44 349.61 782.95 349.60 780.46 349.62 C 780.50 247.72 780.57 145.83 780.43 43.93 Z" />
<path fill="#3eb7e5" opacity="1.00" d=" M 273.38 102.53 C 277.08 101.84 281.42 102.01 284.42 104.57 C 287.28 107.21 287.46 111.38 287.43 115.00 C 287.30 141.00 286.34 166.98 286.24 192.97 C 285.53 215.60 284.91 238.23 284.27 260.86 C 283.87 265.81 284.49 271.26 281.69 275.64 C 278.70 280.14 272.15 280.48 267.61 278.41 C 263.70 276.61 262.71 271.92 262.81 268.02 C 262.97 242.33 265.02 216.69 265.18 190.99 C 265.11 164.98 266.24 138.99 266.26 112.98 C 265.93 108.41 268.47 103.28 273.38 102.53 Z" />
<path fill="#3eb7e5" opacity="1.00" d=" M 560.42 102.66 C 564.14 101.82 568.48 101.91 571.65 104.28 C 574.55 106.55 575.05 110.51 575.02 113.95 C 575.01 139.31 573.92 164.65 573.90 190.01 C 573.26 213.35 572.52 236.68 571.90 260.02 C 571.46 265.18 572.18 270.83 569.41 275.46 C 566.38 280.23 559.41 280.59 554.77 278.18 C 551.18 276.20 550.34 271.76 550.41 268.00 C 550.60 240.32 552.94 212.69 552.79 185.00 C 552.88 160.98 553.84 136.97 553.88 112.95 C 553.59 108.59 555.79 103.65 560.42 102.66 Z" />
<path fill="#3eb7e5" opacity="1.00" d=" M 192.22 109.24 C 200.58 104.36 210.54 103.10 220.07 103.32 C 224.32 103.52 229.22 104.39 231.89 108.07 C 234.67 112.43 233.87 119.41 229.01 121.99 C 223.95 124.77 217.97 123.36 212.57 124.73 C 205.83 126.12 200.03 130.70 196.74 136.70 C 191.64 145.76 190.32 156.41 190.19 166.65 C 199.12 166.31 208.04 165.14 216.98 165.58 C 221.61 165.94 227.08 167.01 229.63 171.36 C 231.56 175.24 231.21 180.77 227.49 183.49 C 224.17 185.81 219.93 185.92 216.03 186.01 C 207.05 185.93 198.10 186.75 189.16 187.46 C 188.82 198.99 187.97 210.52 188.40 222.06 C 188.83 240.83 190.07 259.72 187.64 278.42 C 186.97 282.31 186.67 286.75 183.69 289.68 C 178.75 294.27 169.58 292.33 166.91 286.12 C 165.51 283.05 166.46 279.64 166.82 276.46 C 169.04 261.75 168.58 246.83 168.40 232.01 C 168.16 217.73 168.33 203.46 168.15 189.18 C 161.18 189.42 154.12 190.94 147.18 189.73 C 139.23 188.12 138.03 175.59 144.94 171.87 C 152.38 167.74 161.26 168.81 169.45 168.35 C 170.82 154.93 171.70 141.17 176.63 128.47 C 179.65 120.66 184.84 113.45 192.22 109.24 Z" />
<path fill="#3eb7e5" opacity="1.00" d=" M 496.01 103.93 C 502.57 103.24 509.63 102.38 515.86 105.09 C 521.28 107.37 522.52 114.88 519.43 119.48 C 516.88 123.05 512.15 123.76 508.08 123.91 C 503.49 123.98 498.79 124.56 494.66 126.67 C 488.73 129.52 484.63 135.12 482.19 141.08 C 478.91 149.15 477.89 157.94 477.77 166.60 C 485.84 166.36 493.89 165.41 501.97 165.46 C 506.27 165.63 510.90 165.96 514.56 168.47 C 519.77 171.92 519.76 181.17 514.06 184.14 C 509.08 186.63 503.32 185.83 497.95 186.06 C 490.85 186.37 483.75 186.75 476.69 187.58 C 476.55 196.39 475.94 205.19 475.87 214.00 C 476.01 235.18 477.96 256.46 475.36 277.56 C 474.65 281.66 474.47 286.29 471.49 289.50 C 466.68 294.22 457.47 292.47 454.63 286.38 C 453.15 283.41 453.96 280.02 454.36 276.90 C 456.03 265.69 456.32 254.33 456.13 243.01 C 455.87 225.07 455.81 207.13 455.85 189.19 C 448.97 189.45 442.03 190.82 435.16 189.84 C 426.84 188.52 425.49 175.41 432.73 171.74 C 440.11 167.81 448.83 168.73 456.91 168.42 C 458.97 152.13 459.43 134.72 468.35 120.35 C 474.21 110.74 485.04 105.22 496.01 103.93 Z" />
<path fill="#3eb7e5" opacity="1.00" d=" M 624.39 114.44 C 632.01 112.33 640.43 119.03 639.84 126.97 C 639.88 134.98 630.90 141.14 623.40 138.38 C 616.36 136.33 612.35 127.49 616.00 120.97 C 617.69 117.73 620.83 115.28 624.39 114.44 Z" />
<path fill="#3eb7e5" opacity="1.00" d=" M 944.31 131.27 C 950.03 130.85 956.00 130.53 961.54 132.33 C 963.64 132.80 964.29 135.04 964.14 136.95 C 964.15 182.99 964.13 229.02 964.15 275.06 C 964.06 276.68 964.24 278.89 962.36 279.58 C 958.50 281.28 954.14 281.05 950.01 281.15 C 946.18 281.02 942.13 281.17 938.61 279.47 C 936.90 278.70 937.07 276.61 937.02 275.07 C 937.08 228.71 936.95 182.36 937.08 136.01 C 936.90 132.19 941.48 131.66 944.31 131.27 Z" />
<path fill="#3eb7e5" opacity="1.00" d=" M 815.24 150.04 C 814.93 146.01 817.81 141.97 821.99 141.66 C 830.98 141.26 840.00 141.61 849.00 141.50 C 862.75 141.51 877.25 140.99 889.95 147.14 C 897.70 150.73 903.86 157.65 906.13 165.93 C 908.94 176.25 907.98 188.37 900.77 196.73 C 897.63 200.64 893.17 203.08 888.87 205.50 C 898.97 207.43 908.32 213.92 912.59 223.42 C 919.31 238.44 915.65 258.14 902.57 268.61 C 892.03 277.04 878.19 280.01 864.97 280.40 C 852.32 280.65 839.66 280.42 827.01 280.53 C 823.79 280.53 820.12 280.72 817.60 278.35 C 815.27 276.28 815.18 272.94 815.19 270.05 C 815.24 230.05 815.15 190.04 815.24 150.04 M 843.00 162.72 C 843.03 174.73 842.94 186.74 843.05 198.75 C 851.65 198.23 860.65 200.02 868.95 197.10 C 879.28 193.17 882.01 179.21 876.78 170.28 C 873.71 165.28 867.60 163.27 862.03 162.85 C 855.70 162.47 849.34 162.79 843.00 162.72 M 843.07 219.37 C 842.91 232.55 843.03 245.74 843.01 258.93 C 850.70 258.85 858.40 259.06 866.10 258.82 C 872.23 258.64 878.66 256.49 882.64 251.60 C 887.61 245.33 887.64 236.02 883.90 229.15 C 880.59 223.21 873.66 220.56 867.23 219.80 C 859.21 218.93 851.12 219.64 843.07 219.37 Z" />
<path fill="#3eb7e5" opacity="1.00" d=" M 729.04 154.14 C 734.28 152.15 741.31 150.88 745.70 155.30 C 749.42 158.68 748.44 164.06 749.34 168.51 C 750.21 174.37 752.78 180.57 750.41 186.40 C 747.76 192.75 738.25 194.27 733.54 189.47 C 730.72 185.90 730.69 181.06 729.82 176.79 C 721.75 178.74 713.87 181.37 705.98 183.92 C 698.05 186.90 688.54 191.65 687.48 201.11 C 694.20 203.47 701.39 204.01 708.21 206.01 C 719.84 209.12 731.94 213.59 739.87 223.11 C 747.50 232.14 749.73 245.01 747.11 256.37 C 744.69 266.32 736.21 273.57 726.94 277.09 C 712.87 282.38 697.15 282.60 682.60 279.22 C 675.60 277.35 668.35 275.08 662.79 270.23 C 658.77 266.78 656.54 260.74 658.83 255.73 C 660.85 251.80 665.22 248.78 669.76 249.31 C 674.72 250.33 677.28 255.63 682.20 256.80 C 694.06 260.24 707.10 261.08 718.91 256.99 C 723.15 255.52 727.67 252.00 727.14 246.99 C 727.16 239.05 720.73 232.89 713.74 230.23 C 701.72 225.60 688.20 225.52 676.80 219.12 C 671.60 216.24 667.90 210.91 667.03 205.02 C 665.63 195.84 667.60 185.84 673.54 178.53 C 677.81 173.23 683.75 169.54 690.01 167.04 C 702.76 161.96 716.42 159.57 729.04 154.14 Z" />
<path fill="#3eb7e5" opacity="1.00" d=" M 356.40 164.62 C 367.09 162.61 379.09 163.22 388.17 169.83 C 399.18 177.72 404.62 191.10 407.01 204.01 C 409.86 221.19 408.52 239.65 400.21 255.21 C 394.85 265.36 386.50 274.44 375.55 278.51 C 363.31 283.02 348.87 282.26 337.66 275.36 C 325.73 268.12 317.63 255.50 314.84 241.95 C 311.48 225.82 313.05 208.39 320.56 193.61 C 327.53 179.37 340.35 167.27 356.40 164.62 M 357.43 186.64 C 351.67 188.45 346.74 192.42 343.33 197.37 C 337.31 205.97 334.55 216.55 334.37 226.97 C 334.27 234.14 335.34 241.64 339.24 247.80 C 342.45 252.90 347.34 257.14 353.22 258.76 C 361.92 261.18 371.74 258.46 378.07 252.06 C 384.77 245.96 387.95 236.85 388.32 227.96 C 388.70 218.53 388.46 208.81 385.24 199.83 C 383.29 194.34 379.57 189.09 373.98 186.91 C 368.72 184.92 362.78 185.04 357.43 186.64 Z" />
<path fill="#3eb7e5" opacity="1.00" d=" M 620.37 165.50 C 626.69 163.20 634.33 168.06 634.22 174.95 C 634.49 188.69 632.87 202.37 632.38 216.08 C 631.68 232.40 632.98 248.73 632.88 265.05 C 633.09 270.49 628.54 275.56 623.00 275.52 C 617.09 276.18 611.64 270.97 611.89 265.06 C 611.75 246.06 610.36 227.04 611.72 208.06 C 612.42 197.37 613.22 186.69 613.28 175.97 C 613.06 171.42 615.89 166.78 620.37 165.50 Z" />
<path fill="#3eb7e5" opacity="1.00" d=" M 1030.35 175.28 C 1044.67 174.12 1060.44 175.67 1072.00 185.03 C 1082.30 193.33 1086.68 206.75 1087.72 219.54 C 1088.99 235.22 1087.00 252.29 1077.18 265.15 C 1068.76 276.32 1054.78 282.00 1041.09 282.73 C 1026.67 283.71 1010.83 281.33 999.81 271.22 C 989.56 261.80 985.99 247.41 985.50 233.96 C 984.84 219.09 987.64 203.17 997.42 191.44 C 1005.45 181.64 1017.93 176.41 1030.35 175.28 M 1032.39 196.63 C 1024.59 197.57 1018.40 203.72 1015.94 210.95 C 1012.50 221.07 1012.57 232.15 1014.58 242.56 C 1016.02 249.99 1020.36 257.60 1027.93 260.06 C 1036.29 262.67 1046.75 261.73 1052.89 254.88 C 1059.04 247.83 1060.16 237.98 1060.26 229.00 C 1060.08 219.96 1059.37 209.97 1053.22 202.80 C 1048.18 196.87 1039.72 195.51 1032.39 196.63 Z" />
<path fill="#3eb7e5" opacity="1.00" d=" M 1120.03 182.01 C 1132.10 174.29 1147.39 174.15 1160.97 177.21 C 1171.22 177.73 1181.51 177.14 1191.77 177.47 C 1193.99 177.35 1194.89 179.81 1195.33 181.58 C 1196.04 185.47 1196.08 189.53 1195.32 193.42 C 1194.85 195.19 1194.00 197.62 1191.83 197.71 C 1188.20 197.98 1184.56 197.82 1180.94 197.96 C 1185.45 204.04 1185.52 212.07 1184.03 219.19 C 1182.47 226.63 1178.24 233.56 1171.97 237.94 C 1163.63 243.87 1153.03 245.67 1142.99 245.29 C 1138.74 245.15 1134.70 243.83 1130.80 242.27 C 1129.38 241.39 1128.67 243.09 1128.11 244.03 C 1126.18 247.06 1125.79 251.74 1128.99 254.09 C 1133.27 257.29 1138.96 256.42 1143.97 256.82 C 1155.13 257.51 1166.73 256.51 1177.37 260.62 C 1183.96 263.04 1189.79 267.96 1192.50 274.54 C 1196.70 284.86 1194.38 297.56 1186.64 305.63 C 1182.15 310.49 1176.18 313.73 1169.97 315.87 C 1158.31 319.95 1145.70 320.15 1133.51 319.22 C 1123.88 318.29 1113.72 316.22 1106.09 309.91 C 1098.38 303.59 1097.03 291.89 1101.22 283.20 C 1103.62 277.83 1108.01 273.78 1112.38 270.00 C 1107.26 266.66 1103.21 261.26 1103.09 254.95 C 1102.42 246.39 1107.44 238.80 1113.28 233.05 C 1100.00 218.60 1103.36 192.48 1120.03 182.01 M 1140.38 194.50 C 1127.38 197.26 1124.63 217.54 1135.71 224.27 C 1142.65 228.03 1152.79 227.49 1157.84 220.83 C 1162.28 214.66 1162.36 205.36 1157.70 199.29 C 1153.58 194.30 1146.39 193.33 1140.38 194.50 M 1133.41 276.36 C 1128.29 280.01 1123.53 286.15 1125.31 292.80 C 1126.90 297.95 1132.72 299.82 1137.51 300.63 C 1145.53 301.65 1154.38 301.86 1161.56 297.57 C 1166.99 294.51 1169.46 286.52 1165.69 281.32 C 1161.84 276.89 1155.47 276.70 1150.05 276.53 C 1144.50 276.59 1138.92 275.81 1133.41 276.36 Z" />
</g>
</svg>
