<svg width="2683" height="619" xmlns="http://www.w3.org/2000/svg" xmlns:xlink="http://www.w3.org/1999/xlink" xml:space="preserve" overflow="hidden"><defs><clipPath id="clip0"><rect x="510" y="1271" width="2683" height="619"/></clipPath></defs><g clip-path="url(#clip0)" transform="translate(-510 -1271)"><path d="M2353 1271.38C2357.97 1271.04 2362.97 1271 2367.98 1271 2367.9 1477.33 2368.14 1683.67 2367.86 1890 2362.91 1889.84 2357.99 1889.82 2353.06 1889.86 2353.14 1683.69 2353.28 1477.55 2353 1271.38Z" fill="#00ADEF" fill-rule="evenodd"/><path d="M1328.47 1390.7C1335.98 1389.31 1344.79 1389.65 1350.88 1394.82 1356.69 1400.14 1357.06 1408.56 1356.99 1415.86 1356.73 1468.32 1354.78 1520.73 1354.58 1573.16 1353.14 1618.82 1351.88 1664.48 1350.58 1710.13 1349.77 1720.12 1351.03 1731.11 1345.34 1739.95 1339.27 1749.03 1325.97 1749.72 1316.76 1745.54 1308.82 1741.91 1306.81 1732.45 1307.01 1724.58 1307.34 1672.75 1311.5 1621.02 1311.82 1569.17 1311.68 1516.7 1313.98 1464.26 1314.02 1411.79 1313.35 1402.57 1318.5 1392.22 1328.47 1390.7Z" fill="#464646" fill-rule="evenodd"/><path d="M1908.34 1390.97C1915.9 1389.28 1924.71 1389.46 1931.15 1394.24 1937.04 1398.82 1938.06 1406.81 1938 1413.75 1937.98 1464.91 1935.76 1516.03 1935.72 1567.19 1934.42 1614.27 1932.92 1661.34 1931.66 1708.42 1930.77 1718.83 1932.23 1730.23 1926.6 1739.57 1920.45 1749.19 1906.29 1749.92 1896.86 1745.06 1889.57 1741.06 1887.87 1732.11 1888.01 1724.52 1888.39 1668.68 1893.15 1612.94 1892.84 1557.08 1893.03 1508.62 1894.98 1460.19 1895.06 1411.73 1894.47 1402.94 1898.94 1392.97 1908.34 1390.97Z" fill="#464646" fill-rule="evenodd"/><path d="M1164.21 1404.02C1181.18 1394.15 1201.41 1391.6 1220.76 1392.05 1229.39 1392.45 1239.35 1394.21 1244.77 1401.65 1250.41 1410.47 1248.79 1424.58 1238.92 1429.8 1228.64 1435.42 1216.5 1432.57 1205.53 1435.34 1191.85 1438.15 1180.07 1447.41 1173.39 1459.55 1163.03 1477.87 1160.35 1499.4 1160.09 1520.11 1178.22 1519.42 1196.33 1517.05 1214.49 1517.94 1223.89 1518.67 1235 1520.84 1240.18 1529.63 1244.1 1537.48 1243.39 1548.66 1235.83 1554.16 1229.09 1558.85 1220.48 1559.07 1212.56 1559.26 1194.32 1559.09 1176.15 1560.75 1157.99 1562.19 1157.3 1585.5 1155.58 1608.82 1156.45 1632.15 1157.32 1670.11 1159.84 1708.31 1154.91 1746.12 1153.55 1753.99 1152.94 1762.96 1146.89 1768.89 1136.85 1778.17 1118.23 1774.25 1112.81 1761.69 1109.97 1755.48 1111.9 1748.59 1112.63 1742.16 1117.13 1712.41 1116.2 1682.24 1115.83 1652.27 1115.35 1623.4 1115.69 1594.54 1115.33 1565.67 1101.17 1566.15 1086.84 1569.23 1072.74 1566.78 1056.6 1563.52 1054.16 1538.19 1068.19 1530.66 1083.3 1522.31 1101.34 1524.48 1117.97 1523.55 1120.75 1496.41 1122.54 1468.58 1132.55 1442.9 1138.68 1427.11 1149.22 1412.53 1164.21 1404.02Z" fill="#464646" fill-rule="evenodd"/><path d="M1778.34 1393.41C1791.59 1392.02 1805.85 1390.28 1818.43 1395.76 1829.38 1400.36 1831.89 1415.55 1825.65 1424.84 1820.49 1432.06 1810.94 1433.5 1802.72 1433.8 1793.45 1433.94 1783.95 1435.11 1775.61 1439.38 1763.63 1445.14 1755.35 1456.46 1750.42 1468.51 1743.79 1484.82 1741.73 1502.59 1741.49 1520.1 1757.79 1519.62 1774.05 1517.69 1790.38 1517.8 1799.06 1518.14 1808.41 1518.81 1815.81 1523.88 1826.33 1530.86 1826.31 1549.55 1814.8 1555.56 1804.74 1560.59 1793.1 1558.98 1782.25 1559.44 1767.91 1560.07 1753.57 1560.83 1739.31 1562.51 1739.03 1580.32 1737.79 1598.11 1737.65 1615.92 1737.93 1658.74 1741.87 1701.76 1736.62 1744.41 1735.19 1752.7 1734.82 1762.06 1728.8 1768.55 1719.09 1778.09 1700.48 1774.55 1694.75 1762.24 1691.76 1756.24 1693.39 1749.38 1694.2 1743.08 1697.57 1720.42 1698.16 1697.45 1697.78 1674.57 1697.25 1638.3 1697.13 1602.03 1697.21 1565.77 1683.31 1566.29 1669.29 1569.06 1655.41 1567.08 1638.61 1564.41 1635.88 1537.91 1650.51 1530.49 1665.41 1522.55 1683.03 1524.41 1699.35 1523.78 1703.51 1490.85 1704.44 1455.65 1722.46 1426.6 1734.3 1407.18 1756.18 1396.02 1778.34 1393.41Z" fill="#464646" fill-rule="evenodd"/><path d="M2037.73 1414.79C2053.12 1410.57 2070.13 1423.97 2068.94 1439.84 2069.02 1455.86 2050.88 1468.18 2035.73 1462.66 2021.51 1458.56 2013.4 1440.88 2020.78 1427.84 2024.19 1421.37 2030.54 1416.47 2037.73 1414.79Z" fill="#464646" fill-rule="evenodd"/><path d="M2684.5 1448.66C2695.89 1447.81 2707.76 1447.17 2718.79 1450.8 2722.96 1451.75 2724.26 1456.26 2723.96 1460.12 2723.98 1552.99 2723.94 1645.84 2723.98 1738.72 2723.8 1741.98 2724.16 1746.44 2720.42 1747.83 2712.74 1751.26 2704.06 1750.8 2695.85 1751 2688.23 1750.74 2680.17 1751.04 2673.16 1747.61 2669.76 1746.06 2670.1 1741.84 2670 1738.74 2670.12 1645.22 2669.86 1551.72 2670.12 1458.22 2669.76 1450.52 2678.87 1449.45 2684.5 1448.66Z" fill="#00ADEF" fill-rule="evenodd"/><path d="M2423.1 1486.33C2422.47 1478.19 2428.31 1470.03 2436.78 1469.4 2454.99 1468.59 2473.26 1469.3 2491.5 1469.08 2519.35 1469.1 2548.73 1468.05 2574.46 1480.47 2590.16 1487.73 2602.64 1501.71 2607.24 1518.44 2612.93 1539.29 2610.98 1563.78 2596.38 1580.67 2590.01 1588.57 2580.98 1593.5 2572.27 1598.39 2592.73 1602.29 2611.67 1615.4 2620.32 1634.6 2633.94 1664.95 2626.52 1704.75 2600.02 1725.91 2578.67 1742.94 2550.63 1748.94 2523.85 1749.73 2498.22 1750.24 2472.57 1749.77 2446.95 1749.99 2440.42 1749.99 2432.99 1750.38 2427.88 1745.59 2423.16 1741.41 2422.98 1734.66 2423 1728.82 2423.1 1648 2422.92 1567.15 2423.1 1486.33M2479.34 1511.95C2479.4 1536.22 2479.22 1560.49 2479.44 1584.75 2496.86 1583.7 2515.1 1587.32 2531.91 1581.42 2552.84 1573.48 2558.37 1545.27 2547.78 1527.23 2541.56 1517.12 2529.18 1513.06 2517.89 1512.21 2505.07 1511.45 2492.19 1512.09 2479.34 1511.95M2479.48 1626.42C2479.16 1653.05 2479.4 1679.7 2479.36 1706.35 2494.94 1706.19 2510.54 1706.61 2526.14 1706.13 2538.56 1705.76 2551.58 1701.42 2559.65 1691.54 2569.72 1678.87 2569.78 1660.06 2562.2 1646.18 2555.49 1634.18 2541.45 1628.82 2528.43 1627.29 2512.18 1625.53 2495.79 1626.96 2479.48 1626.42Z" fill="#00ADEF" fill-rule="evenodd"/><path d="M2248.81 1494.69C2259.41 1490.66 2273.62 1488.1 2282.5 1497.03 2290.02 1503.86 2288.04 1514.73 2289.86 1523.73 2291.62 1535.57 2296.81 1548.1 2292.02 1559.88 2286.66 1572.71 2267.44 1575.78 2257.91 1566.08 2252.21 1558.87 2252.15 1549.09 2250.39 1540.46 2234.08 1544.4 2218.14 1549.72 2202.19 1554.87 2186.16 1560.89 2166.93 1570.49 2164.79 1589.61 2178.37 1594.38 2192.91 1595.47 2206.7 1599.51 2230.21 1605.8 2254.68 1614.83 2270.71 1634.07 2286.14 1652.32 2290.65 1678.33 2285.35 1701.28 2280.46 1721.39 2263.31 1736.04 2244.57 1743.16 2216.12 1753.85 2184.34 1754.29 2154.92 1747.46 2140.77 1743.68 2126.11 1739.09 2114.87 1729.29 2106.74 1722.32 2102.23 1710.11 2106.86 1699.99 2110.95 1692.05 2119.78 1685.94 2128.96 1687.02 2138.99 1689.08 2144.16 1699.79 2154.11 1702.15 2178.09 1709.1 2204.46 1710.8 2228.33 1702.54 2236.91 1699.57 2246.04 1692.45 2244.97 1682.33 2245.01 1666.28 2232.01 1653.83 2217.88 1648.46 2193.58 1639.1 2166.24 1638.94 2143.19 1626 2132.68 1620.18 2125.2 1609.41 2123.44 1597.51 2120.61 1578.96 2124.59 1558.75 2136.6 1543.98 2145.24 1533.27 2157.25 1525.81 2169.9 1520.76 2195.68 1510.49 2223.3 1505.66 2248.81 1494.69Z" fill="#464646" fill-rule="evenodd"/><path d="M1496.2 1516.05C1517.75 1511.99 1541.95 1513.22 1560.27 1526.58 1582.47 1542.53 1593.44 1569.58 1598.26 1595.68 1604.01 1630.41 1601.3 1667.72 1584.55 1699.18 1573.74 1719.7 1556.9 1738.05 1534.82 1746.28 1510.13 1755.4 1481.01 1753.86 1458.41 1739.91 1434.35 1725.28 1418.01 1699.76 1412.39 1672.37 1405.61 1639.77 1408.78 1604.53 1423.92 1574.65 1437.98 1545.87 1463.83 1521.41 1496.2 1516.05M1498.27 1560.56C1486.66 1564.22 1476.72 1572.25 1469.84 1582.25 1457.7 1599.64 1452.13 1621.03 1451.77 1642.09 1451.57 1656.59 1453.73 1671.75 1461.59 1684.2 1468.07 1694.51 1477.93 1703.08 1489.78 1706.35 1507.33 1711.25 1527.13 1705.75 1539.9 1692.81 1553.41 1680.48 1559.82 1662.06 1560.57 1644.09 1561.33 1625.03 1560.85 1605.38 1554.36 1587.23 1550.42 1576.13 1542.92 1565.52 1531.65 1561.11 1521.04 1557.09 1509.06 1557.33 1498.27 1560.56Z" fill="#464646" fill-rule="evenodd"/><path d="M2029.79 1517.17C2042.63 1512.51 2058.16 1522.35 2057.94 1536.3 2058.49 1564.11 2055.19 1591.81 2054.2 1619.56 2052.78 1652.6 2055.42 1685.65 2055.22 1718.69 2055.64 1729.7 2046.39 1739.97 2035.13 1739.89 2023.12 1741.22 2012.04 1730.68 2012.55 1718.71 2012.26 1680.25 2009.44 1641.75 2012.2 1603.32 2013.63 1581.68 2015.25 1560.06 2015.37 1538.36 2014.93 1529.15 2020.68 1519.76 2029.79 1517.17Z" fill="#464646" fill-rule="evenodd"/><path d="M2858.06 1537.67C2887.08 1535.33 2919.03 1538.46 2942.45 1557.36 2963.32 1574.11 2972.2 1601.2 2974.31 1627.02 2976.88 1658.68 2972.85 1693.14 2952.95 1719.1 2935.89 1741.65 2907.56 1753.12 2879.82 1754.59 2850.6 1756.57 2818.51 1751.77 2796.18 1731.35 2775.41 1712.34 2768.18 1683.29 2767.19 1656.14 2765.85 1626.12 2771.52 1593.98 2791.34 1570.3 2807.61 1550.51 2832.9 1539.95 2858.06 1537.67M2862.2 1580.77C2846.39 1582.67 2833.85 1595.09 2828.86 1609.68 2821.89 1630.11 2822.04 1652.48 2826.11 1673.5 2829.03 1688.5 2837.82 1703.86 2853.16 1708.83 2870.1 1714.09 2891.29 1712.2 2903.73 1698.37 2916.19 1684.14 2918.46 1664.25 2918.67 1646.12 2918.3 1627.87 2916.86 1607.7 2904.4 1593.23 2894.19 1581.26 2877.05 1578.51 2862.2 1580.77Z" fill="#00ADEF" fill-rule="evenodd"/><path d="M3039.73 1550.48C3064.12 1534.86 3095.02 1534.58 3122.46 1540.77 3143.17 1541.82 3163.97 1540.63 3184.7 1541.29 3189.19 1541.05 3191.01 1546.03 3191.9 1549.61 3193.33 1557.48 3193.41 1565.69 3191.88 1573.56 3190.93 1577.14 3189.21 1582.06 3184.82 1582.24 3177.49 1582.79 3170.13 1582.46 3162.82 1582.75 3171.93 1595.05 3172.07 1611.29 3169.06 1625.7 3165.91 1640.75 3157.36 1654.77 3144.69 1663.63 3127.84 1675.63 3106.42 1679.27 3086.13 1678.5 3077.54 1678.22 3069.37 1675.55 3061.49 1672.39 3058.62 1670.61 3057.19 1674.05 3056.06 1675.95 3052.16 1682.08 3051.37 1691.55 3057.83 1696.31 3066.48 1702.78 3077.98 1701.02 3088.11 1701.83 3110.66 1703.23 3134.1 1701.2 3155.6 1709.52 3168.92 1714.41 3180.7 1724.37 3186.18 1737.68 3194.66 1758.56 3189.98 1784.25 3174.34 1800.58 3165.26 1810.41 3153.2 1816.97 3140.65 1821.3 3117.09 1829.55 3091.6 1829.96 3066.97 1828.07 3047.51 1826.19 3026.98 1822 3011.56 1809.24 2995.98 1796.45 2993.25 1772.78 3001.72 1755.2 3006.57 1744.34 3015.44 1736.14 3024.27 1728.49 3013.92 1721.74 3005.74 1710.81 3005.5 1698.05 3004.14 1680.73 3014.29 1665.37 3026.09 1653.74 2999.25 1624.5 3006.04 1571.66 3039.73 1550.48M3080.85 1575.75C3054.58 1581.33 3049.02 1622.36 3071.42 1635.98 3085.44 1643.58 3105.93 1642.49 3116.14 1629.02 3125.11 1616.53 3125.27 1597.72 3115.85 1585.44 3107.53 1575.34 3093 1573.38 3080.85 1575.75M3066.77 1741.36C3056.42 1748.75 3046.8 1761.17 3050.4 1774.62 3053.61 1785.04 3065.37 1788.83 3075.05 1790.46 3091.26 1792.53 3109.14 1792.95 3123.65 1784.27 3134.63 1778.08 3139.62 1761.92 3132 1751.4 3124.22 1742.43 3111.35 1742.05 3100.39 1741.71 3089.18 1741.83 3077.9 1740.25 3066.77 1741.36Z" fill="#00ADEF" fill-rule="evenodd"/><path d="M752.597 1347.23C772.197 1346.1 791.748 1349.24 810.839 1353.41 833.767 1358.59 856.166 1366.11 877.588 1375.8 890.668 1381.95 903.432 1388.96 914.917 1397.8 922.729 1403.93 930.184 1410.95 934.922 1419.81 938.058 1425.56 939.021 1432.6 936.765 1438.83 933.643 1447.49 927.158 1454.38 920.405 1460.38 902.167 1475.8 880.277 1486.05 858.16 1494.54 831.367 1504.56 803.446 1511.79 775.01 1515 755.307 1517.32 735.411 1515.31 715.942 1512.02 689.445 1507.45 663.388 1500.21 638.458 1490.11 625.124 1484.6 612.078 1478.19 600.146 1470.02 593.317 1465.27 586.818 1459.89 581.647 1453.33 578.105 1448.72 575.155 1443.28 575.004 1437.34 574.893 1431.44 577.479 1425.89 580.725 1421.12 584.927 1415.06 590.181 1409.79 595.841 1405.1 613.171 1391 633.321 1380.89 653.828 1372.3 666.166 1367.23 678.779 1362.84 691.57 1359.06 711.486 1353.27 731.876 1348.74 752.597 1347.23Z" fill="#41b349" fill-rule="evenodd"/><path d="M963.22 1450C971.346 1462.24 978.316 1475.24 984.045 1488.79 988.467 1498.87 991.731 1509.4 994.988 1519.91 1008.74 1567.78 1008.38 1619.69 993.577 1667.27 986.394 1691.29 975.891 1714.4 961.739 1735.1 954.756 1745.15 946.94 1754.77 937.518 1762.63 933.483 1765.89 929.13 1768.97 924.158 1770.59 920.219 1771.87 916.259 1769.9 912.788 1768.19 901.342 1762.01 892.265 1752.34 884.029 1742.42 869.009 1723.64 857.494 1702.11 849.464 1679.45 839.031 1651.02 834.183 1620.56 835.112 1590.28 835.787 1570.09 838.907 1550 844.354 1530.57 871.316 1522.16 897.816 1511.4 921.617 1495.98 932.002 1489.15 941.816 1481.29 949.977 1471.86 955.52 1465.36 960.265 1458.07 963.22 1450Z" fill="#708fc5" fill-rule="evenodd"/><path d="M523.361 1518.06C530.085 1497.3 539.475 1477.43 551.09 1459 554.845 1466.75 560.115 1473.69 566.199 1479.73 576.705 1490.13 589.126 1498.33 602.058 1505.31 620.617 1515.32 640.431 1522.72 660.5 1529.01 671.695 1581.97 668.292 1637.86 651.351 1689.2 644.2 1710.52 634.761 1731.29 621.534 1749.51 616.139 1756.68 610.228 1763.73 602.643 1768.64 600.032 1770.27 596.856 1771.81 593.783 1770.52 586.04 1767.77 579.529 1762.44 573.522 1756.95 554.328 1738.72 540.274 1715.65 529.644 1691.49 523.443 1676.61 518.269 1661.24 515.018 1645.42 505.972 1603.25 509.396 1558.74 523.361 1518.06Z" fill="#da4a37" fill-rule="evenodd"/><path d="M691.384 1537C719.825 1543.24 749.174 1547.47 778.289 1544.13 789.97 1542.82 801.588 1540.84 813.07 1538.29 802.716 1585.33 804.847 1635.24 820.123 1680.95 829.17 1709.17 842.872 1735.98 861.18 1759.24 872.771 1773.62 886.246 1787.12 903 1795.22 883.647 1809.19 862.335 1820.45 839.813 1828.24 780.84 1849.04 714.03 1846.18 657.099 1820.21 641.933 1813.39 627.488 1804.95 614 1795.2 623.776 1790.23 631.778 1782.4 638.866 1774.11 655.806 1753.71 667.549 1729.47 676.575 1704.62 695.351 1651.2 700.837 1592.93 691.384 1537Z" fill="#f6ca38" fill-rule="evenodd"/></g></svg>
